<?xml version="1.0" standalone="no"?>
<!DOCTYPE svg PUBLIC "-//W3C//DTD SVG 20010904//EN"
 "http://www.w3.org/TR/2001/REC-SVG-20010904/DTD/svg10.dtd">
<svg version="1.0" xmlns="http://www.w3.org/2000/svg"
 width="460.000000pt" height="460.000000pt" viewBox="0 0 460.000000 460.000000"
 preserveAspectRatio="xMidYMid meet">
<metadata>
Created by potrace 1.14, written by Peter Selinger 2001-2017
</metadata>
<g transform="translate(0.000000,460.000000) scale(0.100000,-0.100000)"
fill="#000000" stroke="none">
<path d="M0 2651 c0 -1111 4 -1952 9 -1955 5 -3 11 -15 14 -27 4 -15 2 -19 -9
-15 -23 9 -21 -290 2 -316 16 -16 16 -18 0 -24 -9 -3 -16 -16 -16 -29 0 -19 4
-22 23 -19 l22 5 -23 -10 c-21 -10 -22 -15 -22 -136 l0 -125 40 0 c22 0 48 7
57 15 32 27 256 163 346 210 72 37 99 46 157 50 64 5 70 4 70 -14 0 -15 -12
-22 -51 -31 -36 -9 -48 -15 -40 -23 15 -15 -15 -47 -44 -47 -32 0 -51 -25 -29
-38 14 -8 11 -12 -18 -30 -19 -12 -51 -24 -70 -26 -20 -3 -53 -14 -74 -25 -21
-12 -44 -21 -51 -21 -7 0 -13 -4 -13 -10 0 -7 443 -10 1309 -10 1122 0 1310 2
1313 14 2 8 36 49 77 91 62 65 75 75 83 61 13 -23 31 -10 18 13 -7 14 -2 29
19 62 15 24 35 50 44 57 9 8 13 20 10 28 -3 8 0 14 6 14 6 0 11 6 11 14 0 7
11 25 24 39 13 14 26 30 27 36 3 6 12 4 23 -4 24 -18 15 -70 -11 -61 -12 5
-14 1 -9 -19 5 -18 1 -28 -14 -37 -11 -7 -20 -16 -20 -19 0 -4 -8 -24 -17 -45
-9 -22 -16 -43 -14 -48 1 -5 -7 -6 -18 -3 -17 4 -23 -3 -34 -42 -11 -40 -16
-46 -39 -46 -14 0 -30 -3 -34 -7 -4 -4 -13 -3 -21 3 -8 8 -13 8 -13 1 0 -6 6
-12 13 -15 8 -3 5 -12 -10 -28 -20 -21 -23 -21 -23 -5 0 14 -6 12 -30 -14 -17
-18 -30 -34 -30 -36 0 -2 323 -4 717 -4 l717 0 -34 35 c-44 46 -21 46 49 0 50
-33 57 -35 142 -35 l89 0 0 113 c0 61 -4 107 -8 100 -5 -8 -13 -2 -25 19 l-17
30 25 -4 25 -5 0 2173 0 2174 -940 0 -940 0 0 -57 c0 -67 9 -86 30 -73 21 14
36 12 22 -2 -19 -19 -14 -30 8 -18 17 9 20 8 20 -7 0 -10 -14 -24 -33 -33 -17
-8 -32 -22 -33 -30 0 -8 -4 -24 -9 -34 -5 -12 -5 -21 1 -23 5 -2 8 -32 7 -68
-2 -71 2 -75 51 -50 45 24 43 9 -4 -20 -52 -33 -50 -60 3 -40 29 12 19 -13
-13 -30 -29 -15 -29 -16 -23 -82 5 -56 3 -68 -11 -79 -16 -11 -16 -13 0 -22
19 -10 11 -32 -12 -32 -10 0 -14 12 -14 43 0 23 -7 66 -14 94 -8 29 -11 55 -7
58 10 5 6 99 -4 115 -4 7 -2 16 5 20 13 8 11 30 -9 140 -6 30 -16 94 -22 143
l-12 87 -124 0 c-80 0 -122 -4 -118 -10 3 -5 2 -10 -4 -10 -5 0 -13 5 -16 10
-3 6 -46 10 -95 10 -74 0 -89 -3 -94 -17 -6 -15 -8 -15 -17 -3 -8 12 -12 12
-16 2 -4 -10 -8 -9 -17 4 -11 15 -18 15 -47 5 -23 -8 -35 -8 -37 -1 -2 5 -12
10 -22 10 -36 0 -50 -12 -50 -43 0 -42 -23 -137 -32 -137 -5 0 -8 -11 -8 -24
0 -13 -4 -26 -9 -28 -12 -5 -24 -48 -13 -48 5 0 12 10 15 22 4 12 8 20 11 17
11 -11 -7 -47 -25 -52 -33 -9 -33 -8 -10 193 4 41 6 81 3 88 -3 9 -205 12
-963 12 l-959 0 0 -1949z m2240 1912 c0 -5 -7 -17 -15 -27 -15 -20 -15 -20
-15 0 0 12 3 24 7 27 9 9 23 9 23 0z m-40 -63 c0 -5 -4 -10 -10 -10 -5 0 -10
5 -10 10 0 6 5 10 10 10 6 0 10 -4 10 -10z m-50 -52 c0 -40 -12 -68 -27 -68
-11 0 -13 7 -9 25 4 14 2 25 -3 25 -5 0 -11 -8 -13 -17 -3 -13 -6 -15 -11 -6
-5 8 2 22 19 38 33 31 44 32 44 3z m170 12 c0 -5 -5 -10 -11 -10 -5 0 -7 5 -4
10 3 6 8 10 11 10 2 0 4 -4 4 -10z m328 -66 c2 -25 -3 -34 -38 -57 -23 -15
-46 -27 -51 -27 -20 0 -7 26 20 42 35 19 62 61 34 51 -27 -9 -43 -24 -38 -33
3 -5 -4 -6 -15 -3 -30 8 -24 27 13 45 48 22 71 17 75 -18z m-120 6 c3 -9 -1
-11 -11 -7 -9 3 -19 2 -22 -4 -4 -5 -25 -19 -48 -30 -23 -12 -45 -27 -49 -33
-5 -7 -8 -5 -8 5 0 20 26 44 76 69 42 21 55 21 62 0z m-169 -47 c14 -50 14
-56 -4 -49 -17 6 -19 -3 -4 -24 8 -11 12 -12 16 -2 7 17 23 15 23 -3 0 -8 -4
-15 -9 -15 -14 0 -19 -35 -11 -79 l7 -40 -41 1 c-23 1 -52 -2 -65 -7 -23 -8
-24 -6 -16 21 4 16 9 41 10 56 1 15 6 33 12 40 6 7 9 38 7 68 -2 58 5 70 43
70 17 0 24 -9 32 -37z m146 8 c3 -5 1 -12 -5 -16 -5 -3 -10 -15 -10 -26 0 -10
-6 -19 -14 -19 -9 0 -14 9 -14 23 2 37 29 60 43 38z m-55 -40 c0 -13 -29 -35
-37 -28 -7 8 15 37 28 37 5 0 9 -4 9 -9z m-232 -106 c-1 -34 -11 -45 -22 -26
-6 10 10 61 18 61 3 0 5 -16 4 -35z m632 15 c0 -5 -4 -10 -10 -10 -5 0 -10 5
-10 10 0 6 5 10 10 10 6 0 10 -4 10 -10z m-430 -21 c0 -5 -7 -9 -15 -9 -8 0
-15 7 -15 15 0 9 6 12 15 9 8 -4 15 -10 15 -15z m119 -96 c1 -13 3 -23 6 -23
2 0 30 11 61 25 64 28 80 26 43 -6 -13 -11 -23 -27 -21 -34 2 -13 -19 -27 -48
-31 -8 -1 -28 -7 -43 -13 -42 -16 -77 -14 -77 5 0 10 5 14 16 10 8 -3 13 -2
10 3 -3 5 3 11 14 14 17 4 20 14 21 59 0 39 3 48 9 33 5 -11 9 -30 9 -42z
m-338 -6 c-6 -6 -11 -19 -11 -28 0 -9 -7 -23 -16 -30 -15 -12 -16 -11 -11 6 3
11 8 33 12 50 4 16 12 36 18 44 10 12 13 10 15 -9 2 -12 -1 -27 -7 -33z m165
-49 c25 -35 57 -88 71 -118 14 -30 30 -63 35 -72 14 -28 -14 -22 -32 6 -53 83
-110 165 -119 171 -12 7 -41 -22 -109 -113 -45 -61 -47 -63 -50 -36 -2 17 2
31 12 36 28 16 75 111 69 141 -4 21 -2 27 13 27 14 0 15 -3 6 -12 -13 -13 -16
-28 -4 -28 4 0 15 14 24 30 9 17 22 30 27 30 6 0 31 -28 57 -62z m-538 5 c11
-27 24 -59 28 -73 4 -14 15 -36 25 -49 15 -18 16 -27 8 -38 -9 -11 -9 -12 3
-8 10 4 17 -2 21 -17 7 -26 -2 -128 -13 -143 -4 -5 -13 -33 -20 -62 -6 -28
-18 -54 -25 -57 -18 -7 -32 34 -15 44 7 4 9 13 6 19 -11 17 -15 111 -5 117 5
3 9 -1 9 -9 0 -8 8 -25 18 -37 18 -22 18 -22 16 41 -2 65 -22 143 -68 257 -29
72 -19 84 12 15z m-96 15 c-7 -7 -12 -8 -12 -2 0 14 12 26 19 19 2 -3 -1 -11
-7 -17z m631 -129 c36 -45 47 -79 27 -79 -6 0 -12 6 -14 13 -15 48 -16 49 -31
37 -9 -8 -15 -30 -15 -60 0 -55 -7 -65 -29 -43 -10 11 -16 34 -16 62 0 38 -3
46 -17 45 -20 -2 -17 4 20 54 14 18 28 29 32 25 4 -4 23 -29 43 -54z m177 28
c0 -5 -4 -5 -10 -2 -5 3 -10 14 -10 23 0 15 2 15 10 2 5 -8 10 -19 10 -23z
m-812 11 c-6 -18 -28 -21 -28 -4 0 9 7 16 16 16 9 0 14 -5 12 -12z m-9 -85
c-1 -47 -1 -48 -11 -16 -6 18 -8 39 -5 47 11 29 17 17 16 -31z m791 32 c0 -8
-4 -15 -9 -15 -13 0 -22 16 -14 24 11 11 23 6 23 -9z m250 -75 c0 -5 -4 -10
-10 -10 -5 0 -10 5 -10 10 0 6 5 10 10 10 6 0 10 -4 10 -10z m-550 -30 c0 -5
-5 -10 -11 -10 -5 0 -7 5 -4 10 3 6 8 10 11 10 2 0 4 -4 4 -10z m530 -15 c0
-9 7 -18 15 -21 8 -4 15 -11 15 -16 0 -6 -6 -5 -15 2 -10 9 -15 9 -15 1 0 -6
-3 -11 -7 -11 -5 0 -8 14 -8 30 0 17 3 30 8 30 4 0 7 -7 7 -15z m-469 -63 l17
-23 36 37 c20 20 39 35 42 32 7 -7 -55 -104 -64 -100 -4 1 -9 -7 -10 -19 -4
-26 -31 -69 -42 -69 -16 0 -18 55 -3 72 12 14 13 23 4 49 -6 18 -10 46 -10 63
1 29 2 29 8 6 3 -14 13 -36 22 -48z m124 59 c3 -5 1 -12 -5 -16 -5 -3 -10 1
-10 9 0 18 6 21 15 7z m372 -73 c-3 -8 -6 -5 -6 6 -1 11 2 17 5 13 3 -3 4 -12
1 -19z m-952 3 c3 -5 1 -12 -4 -15 -5 -3 -11 1 -15 9 -6 16 9 21 19 6z m215
-51 c0 -5 -4 -10 -10 -10 -5 0 -10 5 -10 10 0 6 5 10 10 10 6 0 10 -4 10 -10z
m-84 -16 c-3 -9 -6 -18 -6 -20 0 -3 -4 -3 -10 1 -11 7 -2 35 12 35 6 0 7 -7 4
-16z m214 -10 c0 -8 -5 -12 -10 -9 -6 4 -8 11 -5 16 9 14 15 11 15 -7z m-265
-53 c3 -5 1 -12 -5 -16 -5 -3 -10 1 -10 9 0 18 6 21 15 7z m72 -87 c-7 -23 -7
-38 -1 -42 6 -4 11 -17 11 -29 2 -28 -18 -30 -58 -6 -22 13 -27 22 -23 40 11
43 -12 23 -25 -22 -7 -25 -16 -44 -18 -41 -3 3 0 20 6 39 7 19 9 52 5 76 -5
33 -4 41 8 41 9 0 21 -7 28 -15 7 -8 19 -15 27 -15 7 0 16 7 18 15 16 49 17
51 25 23 5 -16 4 -43 -3 -64z m-364 57 c3 -13 -1 -21 -13 -24 -16 -4 -17 -2
-8 19 13 29 14 29 21 5z m222 9 c3 -5 3 -15 -1 -21 -6 -11 -23 6 -24 24 0 10
18 9 25 -3z m485 -5 c7 -9 20 -13 27 -11 10 4 13 -1 11 -17 -2 -12 -10 -22
-18 -22 -21 0 -30 -15 -30 -50 -1 -26 -2 -27 -11 -12 -6 10 -8 31 -4 46 4 20
2 30 -9 34 -9 4 -12 14 -9 26 6 25 25 27 43 6z m-560 -80 c-10 -12 -16 -13
-26 -4 -17 14 -18 33 -1 59 12 20 13 19 26 -9 12 -25 12 -33 1 -46z m-192 11
c-1 -14 -5 -23 -9 -20 -7 4 0 44 7 44 2 0 3 -11 2 -24z m845 -59 c-16 -26 -94
-90 -101 -82 -4 4 3 14 16 24 12 9 37 28 55 43 36 31 41 34 30 15z m-379 -84
c18 -52 19 -63 8 -63 -4 0 -12 17 -19 38 -6 20 -15 45 -18 55 -4 9 -3 17 3 17
6 0 17 -21 26 -47z m-94 11 c0 -8 -4 -12 -10 -9 -5 3 -10 13 -10 21 0 8 5 12
10 9 6 -3 10 -13 10 -21z m470 -3 c-14 -26 -81 -81 -92 -75 -4 3 16 25 44 49
61 51 62 51 48 26z m-224 -37 c17 -39 18 -54 4 -54 -11 0 -40 64 -40 87 0 23
21 4 36 -33z m-454 -11 c8 -16 7 -27 -6 -44 -9 -13 -16 -31 -16 -41 0 -10 -4
-18 -8 -18 -11 0 -92 -135 -92 -152 0 -7 -5 -20 -10 -28 -15 -22 -70 43 -70
82 0 26 2 28 15 14 8 -8 15 -24 15 -35 0 -33 14 -25 33 17 23 51 22 65 -3 57
-25 -8 -25 -9 6 56 15 30 29 48 32 40 5 -16 57 39 74 79 7 18 12 21 15 10 2
-8 9 -25 15 -37z m566 -1 c2 -7 -2 -10 -12 -6 -9 3 -16 11 -16 16 0 13 23 5
28 -10z m-313 -32 c-3 -5 -1 -11 5 -15 13 -8 13 -35 0 -35 -5 0 -10 9 -10 19
0 11 -5 23 -10 26 -6 4 -8 11 -4 16 3 5 10 7 15 3 5 -3 7 -9 4 -14z m495 -115
c7 -16 12 -34 11 -39 -1 -5 5 -6 14 -3 17 7 21 -18 5 -28 -5 -3 -10 -14 -10
-23 1 -15 2 -15 15 2 7 10 18 15 24 11 14 -8 14 8 0 22 -8 8 -4 15 12 27 13 8
25 13 28 9 3 -3 0 -8 -6 -10 -18 -6 -16 -33 1 -33 8 0 17 -12 20 -26 5 -19 11
-24 26 -19 32 10 63 -4 57 -26 -4 -17 -2 -19 16 -13 20 6 20 5 8 -10 -8 -9
-20 -15 -27 -12 -6 2 -14 -4 -17 -15 -3 -11 -21 -26 -40 -34 -20 -8 -39 -19
-42 -25 -12 -19 -25 1 -20 28 l6 27 -16 -22 c-14 -18 -21 -20 -41 -13 -34 13
-61 -5 -61 -41 0 -31 -13 -52 -20 -31 -3 6 -22 15 -44 18 -21 4 -36 11 -33 16
3 5 31 21 62 36 36 17 58 35 61 47 2 11 8 23 13 26 7 4 5 26 -5 60 -9 30 -19
79 -23 109 -4 30 -10 62 -15 71 -5 9 -5 20 -1 23 4 4 12 -12 18 -36 6 -24 17
-56 24 -73z m-304 76 c22 18 27 5 13 -43 -18 -62 -29 -69 -29 -17 0 25 -5 50
-11 56 -7 7 -8 17 -3 25 7 10 10 7 12 -10 3 -19 6 -21 18 -11z m-418 2 c-24
-49 -32 -63 -40 -63 -13 0 -9 24 8 48 14 20 41 32 32 15z m322 -48 c0 -2 16
-31 36 -64 29 -48 34 -66 29 -91 -5 -24 -10 -29 -20 -20 -8 6 -17 25 -20 41
-4 17 -13 33 -21 36 -7 2 -16 13 -19 24 -4 11 -11 17 -16 14 -5 -4 -9 -1 -9 5
0 7 -7 9 -16 6 -12 -5 -15 -2 -10 10 3 9 9 33 12 55 l7 39 23 -25 c13 -15 24
-28 24 -30z m810 25 c0 -5 -2 -10 -4 -10 -3 0 -8 5 -11 10 -3 6 -1 10 4 10 6
0 11 -4 11 -10z m-574 -47 c-11 -11 -19 6 -11 24 8 17 8 17 12 0 3 -10 2 -21
-1 -24z m304 -3 c0 -10 -4 -22 -10 -25 -6 -4 -10 7 -10 25 0 18 4 29 10 25 6
-3 10 -15 10 -25z m-1440 0 c15 -11 30 -17 34 -13 3 3 6 -4 6 -16 0 -12 7 -36
16 -52 8 -17 13 -37 11 -44 -3 -7 0 -18 6 -24 8 -8 8 -11 0 -11 -6 0 -25 29
-42 64 -17 35 -35 67 -41 71 -12 8 -33 45 -24 45 3 0 18 -9 34 -20z m820 -17
c0 -7 -4 -13 -10 -13 -5 0 -10 12 -10 28 0 21 2 24 10 12 5 -8 10 -21 10 -27z
m647 15 c-3 -8 -6 -5 -6 6 -1 11 2 17 5 13 3 -3 4 -12 1 -19z m-1358 -24 c27
-46 26 -51 -4 -23 -13 13 -25 32 -25 42 0 25 5 21 29 -19z m2101 32 c0 -3 -4
-8 -10 -11 -5 -3 -10 -1 -10 4 0 6 5 11 10 11 6 0 10 -2 10 -4z m-1514 -33
c-7 -7 -26 7 -26 19 0 6 6 6 15 -2 9 -7 13 -15 11 -17z m1027 7 c3 -11 1 -18
-4 -14 -5 3 -9 12 -9 20 0 20 7 17 13 -6z m76 -32 c-8 -16 -8 -23 2 -29 10 -6
7 -9 -10 -9 -13 0 -39 -11 -57 -25 -18 -14 -40 -25 -48 -25 -25 0 -19 28 7 32
12 2 26 13 32 25 6 14 17 21 30 20 14 -1 21 5 23 20 2 14 8 20 17 16 11 -4 12
-10 4 -25z m-1293 6 c-3 -9 -6 -18 -6 -20 0 -2 -7 -4 -15 -4 -13 0 -14 4 -5
20 13 24 35 27 26 4z m1134 -5 c0 -5 -7 -6 -15 -3 -14 6 -19 -5 -16 -33 1 -7
-3 -13 -9 -13 -5 0 -10 15 -10 34 0 30 2 33 25 28 14 -2 25 -8 25 -13z m-502
-101 c-1 -67 -6 -116 -12 -120 -7 -5 -7 -16 0 -35 7 -22 16 -28 37 -28 21 1
26 -3 21 -17 -4 -12 0 -18 11 -18 12 0 15 -6 10 -22 -6 -19 -5 -21 6 -10 7 6
19 12 26 12 7 0 13 -6 13 -12 0 -18 48 -39 57 -26 3 7 1 8 -5 4 -7 -4 -12 -3
-12 3 0 5 4 12 9 16 15 9 22 -30 11 -60 -8 -21 -13 -25 -24 -16 -10 8 -19 6
-38 -9 -14 -10 -28 -17 -31 -14 -12 12 -25 -35 -32 -111 -8 -80 -37 -155 -61
-155 -20 0 -43 74 -54 180 -19 170 -22 185 -32 195 -9 9 -4 -41 8 -87 3 -9 0
-19 -6 -23 -7 -4 -7 -12 0 -25 5 -10 10 -43 10 -73 0 -30 9 -85 20 -121 17
-52 27 -69 50 -81 21 -11 28 -12 25 -3 -3 7 4 24 15 38 l20 25 -4 -70 c-5 -84
-5 -86 -16 -60 -8 19 -8 19 -17 -5 -6 -13 -8 -33 -5 -44 3 -11 7 -15 10 -8 3
9 8 8 19 -3 19 -20 10 -45 -17 -46 -89 -6 -104 7 -76 66 17 36 14 75 -6 75 -6
0 -9 3 -6 6 3 3 -3 30 -13 59 -10 30 -19 67 -19 83 0 43 -21 145 -34 161 -6 7
-28 25 -49 38 -31 19 -38 29 -33 46 3 12 -1 29 -11 39 -14 16 -14 18 1 24 9 3
16 14 16 23 0 13 2 14 9 2 8 -12 12 -11 27 4 12 11 19 14 22 6 2 -6 7 -9 12
-6 4 3 6 -4 3 -16 -5 -19 -4 -20 15 -8 31 19 23 40 -27 74 -28 19 -48 41 -52
58 -4 16 -21 42 -38 58 -34 32 -39 49 -15 49 8 0 12 -4 9 -10 -3 -6 1 -7 9 -4
15 6 48 -18 46 -33 -3 -24 57 -103 93 -122 35 -19 38 -19 32 -4 -4 10 -8 26
-9 36 0 9 -8 17 -17 17 -16 0 -35 28 -25 37 2 2 20 -5 40 -16 20 -12 36 -17
36 -11 0 5 -4 12 -10 15 -19 11 -10 22 15 20 l25 -3 0 89 c0 49 4 89 9 89 5 0
9 -50 9 -112z m299 90 c-3 -8 -6 -5 -6 6 -1 11 2 17 5 13 3 -3 4 -12 1 -19z
m421 10 c-3 -7 -12 -14 -21 -16 -12 -2 -15 1 -11 12 7 19 38 22 32 4z m-298
-18 c-12 -23 -30 -27 -30 -7 0 17 10 27 27 27 11 0 11 -5 3 -20z m-30 -31 c0
-4 -4 -11 -10 -14 -5 -3 -10 1 -10 9 0 9 -5 16 -11 16 -5 0 -7 -4 -4 -10 3 -5
2 -10 -3 -10 -18 0 -21 39 -3 43 15 3 41 -18 41 -34z m-1370 -11 c22 -36 25
-48 12 -48 -7 0 -42 63 -42 75 0 13 12 2 30 -27z m314 5 c-4 -16 -10 -33 -15
-38 -4 -6 -1 -19 7 -30 13 -17 16 -18 25 -5 5 8 8 31 5 50 l-5 35 23 -27 c13
-15 27 -24 32 -20 4 4 5 0 2 -9 -4 -9 -2 -22 3 -30 8 -12 11 -12 19 1 10 13
11 13 9 0 -3 -26 1 -38 14 -52 7 -7 23 -29 35 -50 12 -20 29 -39 37 -42 8 -3
15 -12 15 -21 0 -22 -35 1 -52 35 -16 31 -31 42 -39 29 -4 -7 -92 56 -147 106
-2 2 0 24 3 49 5 30 12 46 21 46 11 0 13 -7 8 -27z m1654 -29 c-13 -25 -24
-40 -26 -35 -3 10 35 81 44 81 2 0 -6 -21 -18 -46z m-1504 -7 c14 -21 26 -40
26 -42 0 -20 -74 29 -93 61 -11 20 8 17 29 -3 16 -16 16 -16 9 7 -9 30 -4 26
29 -23z m205 -16 c6 -19 9 -36 7 -39 -7 -6 -36 55 -36 75 0 24 15 5 29 -36z
m-1455 28 c-4 -6 -9 -38 -11 -70 -4 -60 5 -98 46 -193 20 -46 20 -50 5 -67
-22 -24 -34 -24 -34 1 0 21 -32 44 -46 32 -5 -4 -3 0 4 10 10 12 10 18 1 23
-6 4 -14 3 -18 -3 -3 -5 -17 -9 -31 -8 -18 1 -26 7 -28 24 -2 12 -7 22 -11 22
-3 0 -7 8 -7 18 -1 9 -3 24 -6 32 -3 8 -3 12 -1 8 9 -16 24 -7 19 10 -4 12 4
25 25 42 52 42 58 50 69 90 6 22 15 40 21 40 6 0 7 -5 3 -11z m2366 -9 c0 -5
-5 -10 -11 -10 -5 0 -7 5 -4 10 3 6 8 10 11 10 2 0 4 -4 4 -10z m-130 -20 c0
-5 -2 -10 -4 -10 -3 0 -8 5 -11 10 -3 6 -1 10 4 10 6 0 11 -4 11 -10z m1329
-78 c6 -2 18 -17 26 -33 9 -16 21 -29 28 -29 7 0 28 -15 46 -34 27 -27 34 -45
37 -82 4 -57 24 -115 44 -131 12 -9 13 -17 3 -45 -7 -18 -9 -46 -6 -62 5 -24
3 -28 -10 -23 -11 4 -18 -1 -23 -16 -5 -12 -7 -25 -6 -28 0 -4 -17 -26 -38
-49 -22 -24 -40 -39 -40 -33 0 6 -19 -8 -42 -32 -39 -39 -104 -85 -120 -85 -3
0 -3 10 0 23 5 21 5 21 -11 5 -9 -9 -17 -21 -17 -26 0 -6 -10 -8 -21 -5 -18 5
-20 3 -14 -17 6 -19 4 -21 -17 -15 -28 9 -58 35 -40 35 7 0 12 4 12 10 0 11
-47 25 -72 21 -12 -1 -18 4 -18 16 0 10 -3 42 -6 71 -8 63 5 68 49 17 16 -19
38 -35 48 -35 10 0 22 -6 26 -14 7 -12 11 -12 27 -1 16 12 17 18 7 46 -16 45
-14 70 7 86 15 12 14 13 -12 11 -26 -3 -32 2 -44 34 -14 36 -14 36 34 101 27
36 52 63 56 61 5 -3 8 4 8 15 0 11 4 30 9 43 35 85 52 169 46 230 l-6 63 19
-45 c11 -24 24 -46 31 -48z m-1363 51 c-10 -10 -19 5 -10 18 6 11 8 11 12 0 2
-7 1 -15 -2 -18z m-1581 -94 l-8 -24 -8 23 c-5 12 -15 22 -22 22 -21 0 -42 29
-43 59 -1 26 -1 26 43 -15 38 -34 44 -45 38 -65z m236 81 c47 -40 147 -110
157 -110 5 0 15 -7 22 -15 10 -12 10 -15 -3 -15 -18 0 -29 -37 -13 -45 8 -3 8
-7 -1 -11 -7 -3 -13 -12 -13 -19 0 -7 6 -16 13 -18 6 -3 -1 -6 -16 -6 -20 -1
-26 3 -20 12 13 20 12 36 -2 31 -7 -3 -24 9 -38 25 -28 34 -37 38 -37 17 0 -8
-15 0 -36 19 l-36 33 16 34 c15 29 15 34 1 44 -8 6 -15 16 -15 22 0 6 -6 13
-12 15 -8 3 -8 6 -2 6 6 1 22 -8 35 -19z m1385 9 c-10 -6 -27 -20 -37 -30 -22
-22 -43 -25 -37 -6 3 6 20 20 39 29 37 19 65 24 35 7z m41 -25 c-30 -25 -47
-31 -47 -14 0 13 62 51 70 44 3 -3 -8 -17 -23 -30z m-118 5 c-11 -22 -12 -59
-1 -59 4 0 13 5 20 12 6 6 14 9 18 6 3 -4 -7 -15 -23 -25 -15 -10 -37 -26 -48
-36 -18 -16 -20 -16 -25 -1 -6 15 -9 14 -28 -6 -12 -13 -22 -29 -22 -34 0 -13
-64 -66 -79 -66 -20 0 -11 18 20 44 17 14 26 26 20 26 -6 0 -11 7 -11 16 0 10
6 13 19 9 18 -5 39 21 26 33 -3 3 -5 0 -5 -6 0 -7 -11 -12 -25 -12 -14 0 -25
4 -25 10 0 14 39 32 52 24 7 -5 8 -3 4 5 -5 8 0 14 13 18 12 3 21 9 21 14 0 5
6 9 13 9 8 0 21 8 30 18 23 25 49 25 36 1z m-1379 -28 c14 -12 20 -21 15 -21
-6 0 -26 14 -45 30 -37 33 -13 25 30 -9z m694 13 c4 -10 1 -14 -6 -12 -15 5
-23 28 -10 28 5 0 13 -7 16 -16z m-146 -39 c-3 -3 -9 2 -12 12 -6 14 -5 15 5
6 7 -7 10 -15 7 -18z m-615 -30 c24 -30 25 -35 10 -35 -11 1 -25 15 -34 35
-21 45 -12 45 24 0z m1522 25 c3 -5 -1 -10 -10 -10 -9 0 -13 5 -10 10 3 6 8
10 10 10 2 0 7 -4 10 -10z m585 -49 c-18 -27 -60 -59 -60 -48 0 8 74 86 78 82
2 -2 -6 -18 -18 -34z m80 15 c0 -2 -7 -9 -15 -16 -13 -11 -14 -10 -9 4 5 14
24 23 24 12z m-2277 -26 c3 -11 1 -18 -4 -14 -5 3 -9 12 -9 20 0 20 7 17 13
-6z m1927 6 c0 -3 -4 -8 -10 -11 -5 -3 -10 -1 -10 4 0 6 5 11 10 11 6 0 10 -2
10 -4z m-1478 -48 c-15 -15 -26 -4 -18 18 5 13 9 15 18 6 9 -9 9 -15 0 -24z
m1418 17 c0 -2 -10 -9 -22 -15 -22 -11 -22 -10 -4 4 21 17 26 19 26 11z
m-2620 -25 c0 -5 -4 -10 -10 -10 -5 0 -10 5 -10 10 0 6 5 10 10 10 6 0 10 -4
10 -10z m807 -22 c-3 -11 0 -21 9 -25 8 -3 14 -9 14 -15 0 -5 -4 -6 -10 -3 -5
3 -10 0 -10 -7 0 -24 -27 16 -33 48 -5 28 -4 31 14 27 14 -4 19 -12 16 -25z
m463 8 c0 -2 -9 -2 -20 1 -11 3 -20 9 -20 15 0 5 9 4 20 -2 11 -6 20 -12 20
-14z m-70 -6 c0 -5 -4 -10 -10 -10 -5 0 -10 5 -10 10 0 6 5 10 10 10 6 0 10
-4 10 -10z m1334 -11 c-67 -75 -84 -92 -89 -87 -3 3 1 11 10 18 20 16 19 27
-2 33 -15 4 -15 5 2 6 11 1 34 13 50 26 37 31 55 33 29 4z m726 -14 c0 -8 -4
-15 -10 -15 -5 0 -10 7 -10 15 0 8 5 15 10 15 6 0 10 -7 10 -15z m-3204 -36
c10 -47 9 -54 -11 -51 -18 4 -18 3 3 -15 25 -21 21 -58 -8 -66 -15 -4 -18 2
-17 44 1 52 -9 72 -23 49 -8 -12 -10 -10 -10 8 0 24 19 29 37 11 9 -9 10 -6 6
10 -3 12 -9 24 -14 27 -5 3 -9 10 -9 16 0 15 43 -15 46 -33z m1524 -5 c0 -13
-1 -24 -3 -24 -2 0 -14 11 -26 24 l-22 24 25 0 c21 0 26 -5 26 -24z m-1380 -1
c0 -5 18 -32 41 -62 38 -50 40 -56 28 -79 l-14 -24 -6 23 c-4 13 -7 18 -8 11
-1 -7 -6 -10 -11 -7 -6 4 -8 11 -5 16 3 5 -1 6 -9 3 -9 -3 -16 -10 -16 -16 0
-5 -5 -6 -10 -3 -8 5 -7 11 1 21 6 8 8 14 3 14 -5 0 -22 11 -38 24 l-30 23 30
31 c29 31 44 39 44 25z m650 -3 c0 -5 -2 -10 -4 -10 -3 0 -8 5 -11 10 -3 6 -1
10 4 10 6 0 11 -4 11 -10z m-370 -30 c0 -5 -7 -10 -16 -10 -8 0 -12 5 -9 10 3
6 10 10 16 10 5 0 9 -4 9 -10z m400 -6 c0 -14 -3 -14 -15 -4 -8 7 -15 14 -15
16 0 2 7 4 15 4 8 0 15 -7 15 -16z m2050 -14 c0 -11 -6 -20 -14 -20 -9 0 -12
7 -9 20 3 11 9 20 14 20 5 0 9 -9 9 -20z m365 0 c3 -5 1 -10 -4 -10 -6 0 -11
5 -11 10 0 6 2 10 4 10 3 0 8 -4 11 -10z m-2738 -81 c-3 -58 -17 -189 -35
-339 -6 -42 -11 -56 -26 -58 -13 -3 -16 0 -11 9 6 9 3 11 -9 6 -10 -4 -24 -7
-32 -7 -8 0 -14 -9 -14 -20 0 -11 -5 -20 -10 -20 -6 0 -8 11 -4 26 6 24 5 25
-14 13 -11 -7 -23 -22 -26 -32 -2 -10 -9 -16 -15 -12 -16 9 -13 41 4 55 8 7
15 19 15 26 0 8 5 14 10 14 6 0 18 17 27 38 8 20 20 46 25 57 5 12 11 30 12
40 2 11 8 19 14 18 5 -1 8 6 5 16 -3 10 3 34 13 52 9 18 18 52 20 75 1 24 8
53 16 66 7 13 14 28 14 33 1 6 2 14 3 20 0 5 6 4 12 -2 6 -6 9 -36 6 -74z
m380 75 c-3 -3 -12 -4 -19 -1 -8 3 -5 6 6 6 11 1 17 -2 13 -5z m730 -10 c-3
-3 -12 -4 -19 -1 -8 3 -5 6 6 6 11 1 17 -2 13 -5z m1580 -129 c2 -27 5 -66 6
-85 1 -19 5 -39 8 -45 10 -14 13 -162 5 -200 -3 -11 -5 -24 -5 -30 -1 -5 -7
-3 -15 5 -14 15 -27 92 -27 158 0 17 -3 32 -7 32 -10 0 -15 233 -7 261 7 21 8
20 22 -12 9 -19 17 -56 20 -84z m48 95 c3 -5 -3 -10 -14 -10 -12 0 -21 5 -21
10 0 6 6 10 14 10 8 0 18 -4 21 -10z m15 -30 c0 -5 18 -33 40 -62 43 -58 56
-104 15 -53 -14 17 -25 35 -25 42 0 7 -11 23 -25 37 -26 26 -32 46 -15 46 6 0
10 -4 10 -10z m-3230 -62 c0 -19 -2 -20 -10 -8 -13 19 -13 30 0 30 6 0 10 -10
10 -22z m170 12 c0 -5 -2 -10 -4 -10 -3 0 -8 5 -11 10 -3 6 -1 10 4 10 6 0 11
-4 11 -10z m158 -30 c-7 -11 -17 -20 -22 -20 -4 0 -3 6 3 13 6 8 8 17 4 20 -3
4 1 7 10 7 15 0 15 -3 5 -20z m-288 -60 c7 -17 18 -30 24 -30 7 0 22 -9 34
-21 12 -11 27 -17 32 -14 6 3 10 1 10 -5 0 -8 9 -10 23 -7 12 4 29 2 37 -3 10
-7 11 -10 2 -10 -7 0 -18 -11 -24 -25 -12 -26 -34 -36 -24 -10 3 8 1 15 -4 15
-6 0 -10 -5 -10 -12 0 -9 -3 -9 -12 1 -7 6 -13 17 -13 24 0 7 -14 12 -30 13
-46 1 -68 18 -71 53 -1 18 -5 44 -9 58 -5 22 -4 25 8 14 8 -6 20 -25 27 -41z
m260 11 c0 -5 -7 -14 -15 -21 -8 -7 -12 -16 -9 -21 3 -5 -4 -9 -15 -9 -11 0
-22 -8 -24 -17 -4 -14 -5 -12 -6 5 -1 14 5 22 16 22 9 0 13 3 10 7 -4 3 0 15
10 25 17 19 33 24 33 9z m53 -53 c-7 -53 -23 -74 -23 -30 0 25 17 72 26 72 1
0 0 -19 -3 -42z m513 -64 c-4 -14 -9 -24 -12 -21 -3 2 -2 17 2 31 3 15 9 25
11 22 3 -3 2 -17 -1 -32z m-632 11 c-4 -8 -8 -15 -10 -15 -2 0 -4 7 -4 15 0 8
4 15 10 15 5 0 7 -7 4 -15z m328 -19 c9 -18 30 -44 48 -57 82 -63 96 -78 80
-89 -21 -14 -19 -15 -88 42 -46 37 -62 57 -59 70 3 10 2 18 -3 18 -11 0 -21
30 -14 41 10 16 20 9 36 -25z m2708 18 c0 -8 -4 -12 -10 -9 -5 3 -10 10 -10
16 0 5 5 9 10 9 6 0 10 -7 10 -16z m-2085 -4 c3 -5 2 -10 -4 -10 -5 0 -13 5
-16 10 -3 6 -2 10 4 10 5 0 13 -4 16 -10z m1245 -10 c0 -5 -4 -10 -10 -10 -5
0 -10 5 -10 10 0 6 5 10 10 10 6 0 10 -4 10 -10z m312 -22 c-9 -9 -12 -7 -12
12 0 19 3 21 12 12 9 -9 9 -15 0 -24z m858 -34 c0 -8 -4 -13 -9 -10 -5 4 -19
-6 -31 -21 -58 -76 -60 -79 -52 -58 19 53 56 95 90 104 1 1 2 -6 2 -15z
m-3676 -9 c-4 -8 -10 -15 -15 -15 -5 0 -9 7 -9 15 0 8 7 15 15 15 9 0 12 -6 9
-15z m3586 -33 c0 -10 -37 -42 -49 -42 -5 0 -11 -7 -15 -15 -7 -20 -23 -19
-44 1 -15 15 -14 16 6 10 17 -6 29 -1 51 23 28 29 51 40 51 23z m-3535 -42
c41 -42 58 -50 49 -25 -4 8 -3 15 0 15 4 0 11 -11 16 -25 5 -14 23 -34 40 -43
32 -18 41 -52 14 -52 -10 0 -14 -6 -11 -15 4 -8 2 -17 -2 -19 -10 -6 -43 29
-61 64 -17 32 -71 103 -87 113 -14 9 -18 27 -5 27 4 -1 25 -19 47 -40z m225
21 c0 -12 -20 -25 -27 -18 -7 7 6 27 18 27 5 0 9 -4 9 -9z m805 -11 c3 -5 2
-10 -4 -10 -5 0 -13 5 -16 10 -3 6 -2 10 4 10 5 0 13 -4 16 -10z m378 -32 c27
-48 38 -103 27 -133 -6 -16 -8 -13 -7 13 0 42 -10 52 -19 16 -4 -15 -13 -39
-21 -53 l-14 -26 5 30 c2 17 7 47 11 67 3 21 1 39 -5 43 -5 3 -10 -1 -10 -9 0
-17 -95 -116 -111 -116 -16 0 7 32 55 78 34 32 46 50 46 72 0 27 8 60 15 60 2
0 14 -19 28 -42z m-1153 7 c-13 -14 -28 -25 -33 -25 -6 0 3 11 19 25 37 32 44
32 14 0z m2019 -17 c-1 -40 -2 -41 -9 -13 -12 46 -12 -80 0 -130 5 -22 7 -41
6 -43 -2 -1 -13 12 -25 30 -11 18 -21 27 -21 20 0 -7 -4 -10 -10 -7 -25 16 1
120 42 173 16 19 18 15 17 -30z m1089 16 c12 -8 26 -13 31 -9 6 3 13 0 18 -7
4 -7 33 -26 64 -42 55 -29 57 -29 75 -11 18 17 19 17 22 1 4 -17 5 -17 23 0
29 26 33 10 5 -21 -14 -15 -24 -32 -23 -37 1 -5 -8 -17 -20 -25 -13 -9 -23
-11 -23 -5 0 6 8 12 18 14 22 4 -92 82 -122 83 -22 1 -105 54 -106 68 0 11 14
8 38 -9z m-2571 -13 c18 -7 31 -17 28 -22 -3 -4 -18 -3 -32 4 -21 9 -27 9 -31
-1 -2 -7 -7 -10 -12 -7 -9 6 -1 48 9 42 3 -2 21 -9 38 -16z m188 -66 c43 -20
61 -19 75 3 10 15 10 15 8 -3 -2 -15 -12 -21 -42 -23 -21 -2 -42 0 -45 5 -7 9
-48 33 -56 33 -4 0 -3 -5 1 -12 4 -7 3 -8 -5 -4 -6 4 -9 12 -6 17 9 13 -9 11
-23 -3 -14 -14 -16 1 -6 40 6 22 6 22 37 -7 16 -17 45 -37 62 -46z m1783 28
c1 -32 0 -34 -11 -19 -12 16 -14 16 -26 2 -8 -9 -18 -16 -24 -16 -6 0 4 16 23
35 19 19 35 35 35 35 1 0 2 -16 3 -37z m-852 -20 c-10 -10 -19 5 -10 18 6 11
8 11 12 0 2 -7 1 -15 -2 -18z m461 -99 c-4 -4 -18 5 -31 19 -14 15 -29 27 -34
27 -8 0 -32 43 -32 57 0 4 23 -17 52 -45 28 -28 49 -55 45 -58z m-471 51 c-3
-8 -12 -15 -21 -15 -14 0 -14 3 2 24 18 24 30 18 19 -9z m723 8 c2 -2 -5 -3
-17 -3 -14 0 -22 6 -22 16 0 14 3 15 18 3 9 -7 19 -15 21 -16z m51 12 c-7 -9
-15 -13 -19 -10 -3 3 1 10 9 15 21 14 24 12 10 -5z m-875 -23 c-21 -5 -45 5
-45 17 0 5 13 4 31 -2 21 -8 26 -13 14 -15z m335 -22 c0 -5 -4 -10 -10 -10 -5
0 -10 5 -10 10 0 6 5 10 10 10 6 0 10 -4 10 -10z m870 -5 c-7 -9 -15 -13 -19
-10 -3 3 1 10 9 15 21 14 24 12 10 -5z m-1969 -22 c-12 -20 -14 -14 -5 12 4 9
9 14 11 11 3 -2 0 -13 -6 -23z m106 -3 c44 -20 50 -26 40 -41 -8 -14 -15 -15
-34 -6 -13 5 -23 16 -23 23 0 6 -8 15 -17 19 -15 5 -16 4 -5 -6 20 -21 14 -33
-8 -14 -19 17 -29 62 -12 53 4 -3 30 -15 59 -28z m446 -20 c28 -27 48 -52 45
-55 -3 -3 -24 3 -45 15 -32 16 -46 19 -67 10 -33 -12 -36 -12 -34 -2 0 4 -3
16 -7 26 -6 14 -2 24 14 38 13 10 28 18 33 18 5 0 33 -22 61 -50z m982 21 c-3
-12 -13 -21 -21 -21 -18 0 -18 9 3 32 20 22 27 17 18 -11z m-1784 -27 c26 -19
55 -46 65 -62 21 -30 64 -131 64 -148 0 -7 -17 -15 -37 -19 -33 -6 -40 -3 -61
20 -13 16 -21 34 -17 43 4 10 -4 24 -21 39 -21 18 -24 26 -15 37 9 10 8 16 -3
25 -8 7 -22 27 -31 46 -9 19 -22 35 -29 35 -8 0 -16 7 -19 15 -10 25 53 6 104
-31z m1826 14 c-3 -7 -5 -2 -5 12 0 14 2 19 5 13 2 -7 2 -19 0 -25z m313 14
c0 -4 -15 -25 -34 -47 -19 -22 -30 -42 -25 -46 6 -3 4 -11 -6 -19 -8 -7 -15
-21 -15 -31 0 -10 -4 -20 -10 -24 -6 -4 -6 -15 0 -31 7 -19 6 -31 -7 -50 -15
-23 -21 -25 -57 -20 -22 4 -42 9 -45 12 -7 7 40 115 68 156 14 20 38 42 53 48
14 6 36 22 49 36 24 26 29 28 29 16z m-394 -27 c4 -8 11 -12 17 -8 6 4 7 1 2
-6 -5 -9 -10 -10 -18 -2 -6 6 -18 11 -26 11 -14 0 -14 -1 -1 -10 15 -10 13
-11 -27 -14 -25 -2 -26 19 -1 32 32 15 48 14 54 -3z m-466 -7 c-8 -7 -21 -19
-27 -27 -8 -9 -13 -10 -13 -4 0 15 28 43 43 43 6 0 5 -5 -3 -12z m-266 -14 c3
-8 2 -12 -4 -9 -6 3 -10 10 -10 16 0 14 7 11 14 -7z m158 -86 c-7 -7 -12 -22
-12 -35 0 -26 -15 -31 -24 -7 -7 18 8 50 26 57 19 6 24 -1 10 -15z m-1232 -18
c0 -5 -2 -10 -4 -10 -3 0 -8 5 -11 10 -3 6 -1 10 4 10 6 0 11 -4 11 -10z
m2192 -22 c-7 -7 -12 -8 -12 -2 0 14 12 26 19 19 2 -3 -1 -11 -7 -17z m-1382
-48 c8 -25 18 -39 26 -36 8 3 12 -5 12 -25 -2 -54 -26 -25 -52 63 -17 58 -5
56 14 -2z m240 25 c-6 -16 -6 -26 1 -31 7 -4 7 -10 -1 -18 -8 -8 -14 -7 -21 7
-6 9 -14 15 -20 12 -20 -13 -7 11 18 32 33 29 35 29 23 -2z m-1026 -47 c-2 -9
0 -19 6 -23 5 -3 10 -14 10 -23 0 -11 -12 -4 -40 23 -44 43 -56 73 -13 34 21
-19 25 -21 20 -6 -4 11 -4 23 -1 29 9 15 25 -13 18 -34z m1366 -6 c0 -5 -13
-18 -30 -30 -35 -26 -39 -18 -8 15 22 23 38 30 38 15z m-650 -22 c0 -5 -2 -10
-4 -10 -3 0 -8 5 -11 10 -3 6 -1 10 4 10 6 0 11 -4 11 -10z m-590 -45 c10 3
22 1 25 -6 6 -8 9 -8 15 1 4 7 10 -3 14 -27 4 -21 16 -53 27 -71 32 -55 19
-72 -23 -29 -13 12 -26 21 -30 20 -4 -2 -14 10 -23 26 -8 16 -20 31 -26 33 -6
2 -13 22 -15 43 -2 31 0 36 7 22 7 -11 17 -16 29 -12z m1898 -23 c7 7 15 8 19
4 5 -4 -4 -17 -20 -28 -15 -11 -27 -26 -27 -34 0 -15 -66 -84 -80 -84 -6 0 0
17 13 38 13 20 30 58 37 84 13 44 15 46 30 28 13 -15 20 -16 28 -8z m-1964 2
c3 -8 2 -12 -4 -9 -6 3 -10 10 -10 16 0 14 7 11 14 -7z m697 -11 c25 -27 74
-141 65 -150 -2 -3 -25 5 -51 16 -39 17 -45 23 -36 38 6 11 6 24 0 35 -6 10
-7 23 -4 28 3 5 1 11 -5 15 -12 7 -14 45 -2 45 5 0 20 -12 33 -27z m-921 -2
c0 -5 -7 -11 -15 -15 -8 -3 -16 -16 -16 -28 l-2 -23 -4 22 c-2 12 2 29 9 37
15 17 28 20 28 7z m2490 -23 c0 -19 -2 -20 -10 -8 -13 19 -13 30 0 30 6 0 10
-10 10 -22z m-2915 -86 c33 -44 77 -107 97 -139 20 -32 54 -83 76 -113 52 -75
95 -150 85 -150 -8 0 -38 41 -123 171 -49 75 -122 181 -169 244 -47 63 -55 78
-39 73 7 -3 40 -41 73 -86z m1204 30 c13 -11 21 -24 17 -31 -10 -16 -26 -13
-33 7 -3 9 -15 28 -27 41 -20 23 -20 23 -1 13 11 -6 31 -20 44 -30z m956 8
c-10 -11 -21 -18 -23 -15 -3 3 3 12 14 20 27 20 30 18 9 -5z m-2001 -36 c15
-40 -4 -48 -22 -9 -9 20 -9 25 2 25 8 0 17 -7 20 -16z m1955 -6 c-9 -16 -14
-19 -17 -9 -2 7 2 17 9 22 20 13 21 11 8 -13z m-538 -28 c5 0 6 -7 3 -15 -4
-8 -10 -12 -15 -9 -5 3 -7 9 -4 14 3 5 1 11 -5 15 -5 3 -10 14 -9 23 0 13 3
12 11 -5 6 -13 15 -23 19 -23z m199 -2 l-22 -21 7 24 c9 27 28 44 34 28 2 -6
-7 -20 -19 -31z m131 -11 c-17 -17 -24 -1 -10 25 12 21 14 21 17 4 2 -10 -1
-23 -7 -29z m-231 23 c0 -5 -7 -10 -15 -10 -8 0 -15 5 -15 10 0 6 7 10 15 10
8 0 15 -4 15 -10z m125 -30 c3 -5 2 -10 -4 -10 -5 0 -13 5 -16 10 -3 6 -2 10
4 10 5 0 13 -4 16 -10z m-1610 -45 c4 -21 3 -25 -3 -15 -15 24 -26 67 -14 55
6 -5 13 -23 17 -40z m725 -37 c0 -5 -4 -8 -10 -8 -17 0 -11 -26 10 -45 10 -9
25 -15 33 -12 14 5 36 -15 82 -77 29 -38 29 -39 6 -31 -13 4 -21 3 -18 -2 6
-9 -27 -10 -53 -1 -8 3 -35 12 -60 20 -36 12 -45 20 -43 37 2 16 -2 20 -20 18
-20 -2 -23 3 -27 50 -3 29 -11 58 -18 65 -20 20 -14 24 24 20 36 -4 37 -4 30
24 -7 28 -7 28 28 -11 19 -22 35 -43 36 -47z m1583 60 c-6 -7 -10 -20 -11 -28
0 -8 -5 -30 -10 -48 -8 -23 -8 -30 0 -26 8 5 9 1 4 -12 -4 -10 -12 -38 -19
-61 -10 -38 -15 -43 -51 -52 -23 -5 -52 -13 -65 -17 -20 -6 -23 -4 -18 10 7
19 -4 15 -35 -12 -43 -37 -3 30 65 108 72 83 142 157 146 154 2 -2 -1 -9 -6
-16z m-253 -38 c-6 -11 -13 -20 -16 -20 -2 0 0 9 6 20 6 11 13 20 16 20 2 0 0
-9 -6 -20z m-2094 -55 l15 -30 -25 29 c-13 16 -27 39 -30 50 -5 21 -5 21 10 1
9 -11 22 -33 30 -50z m1384 8 c0 -43 -5 -41 -13 5 -4 18 -2 32 3 32 6 0 10
-16 10 -37z m-764 -8 c0 -17 4 -46 8 -65 11 -49 -7 -26 -23 29 -7 23 -15 50
-18 58 -4 11 0 14 13 11 13 -2 19 -12 20 -33z m1014 29 c0 -14 -32 -115 -36
-112 -7 7 20 118 28 118 4 0 8 -3 8 -6z m-90 -108 c0 -6 -3 -6 -9 0 -6 5 -13
29 -16 54 l-5 45 15 -45 c8 -25 15 -49 15 -54z m140 45 c-28 -56 -35 -52 -8 4
12 24 23 43 26 41 2 -2 -6 -22 -18 -45z m1410 35 c0 -3 -4 -8 -10 -11 -5 -3
-10 -1 -10 4 0 6 5 11 10 11 6 0 10 -2 10 -4z m-1620 -61 c-8 -20 -14 -25 -21
-18 -8 8 -5 17 7 32 23 26 27 21 14 -14z m891 -16 c-5 -13 -10 -19 -10 -12 -1
15 10 45 15 40 3 -2 0 -15 -5 -28z m-249 -31 c-10 -18 -25 -32 -31 -30 -7 1
-10 -2 -6 -7 3 -6 -1 -22 -10 -35 -9 -14 -14 -29 -11 -34 3 -5 -3 -17 -14 -27
-18 -16 -20 -16 -20 -2 0 23 47 108 77 140 35 36 39 34 15 -5z m248 -33 c0
-14 -4 -25 -10 -25 -5 0 -10 11 -10 25 0 14 5 25 10 25 6 0 10 -11 10 -25z
m-1723 -21 c-6 -20 -13 -31 -15 -25 -6 17 7 61 17 61 5 0 4 -16 -2 -36z m-73
-121 c4 -26 2 -43 -4 -43 -16 0 -25 55 -21 120 l3 35 8 -35 c4 -19 10 -54 14
-77z m262 82 c17 -13 17 -14 2 -15 -10 0 -18 5 -18 10 0 6 -7 10 -16 10 -10 0
-14 -5 -10 -15 4 -13 2 -14 -14 -5 -14 8 -20 8 -20 0 0 -6 -4 -9 -8 -6 -4 2
-9 -7 -10 -22 -1 -14 -7 -31 -12 -36 -6 -6 -10 -14 -10 -18 0 -13 17 -9 33 6
12 13 14 10 13 -17 -1 -18 -5 -35 -10 -39 -5 -3 -2 -13 6 -22 15 -14 17 -12
32 18 22 46 45 64 57 45 5 -8 9 -9 9 -4 0 14 -32 52 -50 58 -11 4 -10 6 4 6
10 1 27 -9 38 -21 16 -19 21 -20 28 -8 7 10 10 11 10 3 0 -7 4 -13 9 -13 5 0
7 10 4 23 -4 20 -3 20 7 4 6 -10 13 -47 14 -81 2 -35 6 -68 10 -75 10 -16 -2
-31 -19 -24 -8 3 -15 0 -15 -6 0 -5 -19 -28 -42 -51 -41 -39 -68 -51 -68 -29
0 6 -11 25 -25 43 -14 18 -25 39 -25 47 0 8 -5 20 -11 26 -7 7 -7 13 0 17 6 4
4 21 -8 49 -11 24 -16 56 -14 74 4 24 1 32 -12 35 -24 4 62 48 96 48 14 0 34
-7 45 -15z m1389 -27 c9 -18 10 -27 3 -20 -16 16 -29 15 -22 -2 3 -8 -3 -16
-15 -19 -12 -3 -21 -1 -21 4 0 12 29 69 35 69 2 0 11 -15 20 -32z m-1340 2 c3
-5 2 -10 -4 -10 -5 0 -13 5 -16 10 -3 6 -2 10 4 10 5 0 13 -4 16 -10z m451
-37 c-10 -10 -19 5 -10 18 6 11 8 11 12 0 2 -7 1 -15 -2 -18z m-1202 1 c3 -8
2 -12 -4 -9 -6 3 -10 10 -10 16 0 14 7 11 14 -7z m1479 -4 c-3 -11 -7 -20 -9
-20 -2 0 -4 9 -4 20 0 11 4 20 9 20 5 0 7 -9 4 -20z m657 -11 c0 -6 -4 -7 -10
-4 -5 3 -10 11 -10 16 0 6 5 7 10 4 6 -3 10 -11 10 -16z m-1440 -2 c0 -1 -9
-10 -20 -20 -16 -13 -20 -14 -20 -3 0 8 8 17 18 19 9 3 18 5 20 6 1 0 2 0 2
-2z m1984 -19 c-9 -29 -35 -70 -41 -64 -4 4 39 86 45 86 2 0 0 -10 -4 -22z
m-1505 -5 c5 -10 9 -22 10 -28 1 -5 13 -10 29 -10 19 0 27 5 27 17 0 10 4 18
8 18 4 0 11 0 16 0 5 0 13 -9 16 -20 5 -15 15 -20 40 -20 31 0 34 -2 33 -30
-2 -49 -39 -72 -111 -68 -59 3 -60 3 -81 45 -15 31 -26 41 -38 37 -24 -7 -23
11 4 46 25 35 34 37 47 13z m-350 -47 c-13 -49 -19 -43 -12 12 3 24 10 39 14
35 5 -5 4 -26 -2 -47z m-771 13 c-3 -8 -7 -3 -11 10 -4 17 -3 21 5 13 5 -5 8
-16 6 -23z m1526 -5 c25 -10 19 -46 -13 -81 -26 -29 -33 -31 -77 -27 -62 6
-98 31 -102 72 l-3 31 88 4 c48 1 89 4 90 5 1 1 8 -1 17 -4z m546 -54 c0 -25
-5 -40 -16 -44 -39 -15 -43 0 -19 58 19 45 35 38 35 -14z m580 46 c0 -3 -4 -8
-10 -11 -5 -3 -10 -1 -10 4 0 6 5 11 10 11 6 0 10 -2 10 -4z m-1836 -21 c3 -8
1 -15 -4 -15 -6 0 -10 7 -10 15 0 8 2 15 4 15 2 0 6 -7 10 -15z m-770 -47 c18
-29 35 -62 38 -73 3 -11 9 -29 13 -40 6 -16 3 -15 -14 5 -18 21 -20 21 -15 5
9 -25 1 -18 -16 14 -9 18 -9 22 0 16 17 -11 3 30 -26 77 -13 21 -24 40 -24 43
0 15 14 0 44 -47z m2145 15 c-1 -27 -15 -58 -21 -47 -8 13 2 64 13 64 5 0 9
-8 8 -17z m-622 -25 c-3 -7 -5 -2 -5 12 0 14 2 19 5 13 2 -7 2 -19 0 -25z
m1023 -12 c4 -4 11 1 15 13 3 12 11 21 16 21 11 0 -20 -62 -33 -68 -5 -2 -8
-16 -8 -31 0 -15 -8 -36 -19 -47 -10 -11 -26 -34 -35 -50 l-16 -29 6 30 c23
113 57 217 62 189 2 -10 8 -23 12 -28z m-665 14 c3 -5 1 -10 -4 -10 -6 0 -11
5 -11 10 0 6 2 10 4 10 3 0 8 -4 11 -10z m-72 -25 c4 -8 2 -17 -3 -20 -6 -4
-10 3 -10 14 0 25 6 27 13 6z m-1137 -44 c-9 -9 -19 -33 -22 -52 l-7 -34 21
19 c12 10 24 28 28 39 4 11 15 34 25 51 l19 31 -6 -34 c-7 -31 -6 -33 16 -26
21 7 22 5 18 -24 -3 -18 -1 -34 4 -37 4 -3 8 -17 8 -32 0 -15 7 -39 14 -54 20
-38 7 -35 -26 6 -31 38 -34 52 -15 59 10 4 10 7 0 18 -11 11 -13 10 -13 -5 0
-9 -4 -15 -8 -12 -4 2 -8 -4 -8 -15 0 -10 4 -19 8 -19 4 0 5 -9 3 -20 -6 -30
14 -78 35 -85 10 -3 20 -13 24 -23 3 -9 19 -39 36 -67 43 -72 44 -76 29 -87
-11 -8 -10 -9 4 -4 11 3 17 0 17 -10 0 -8 7 -17 15 -20 8 -4 15 -16 15 -29 0
-12 10 -30 21 -41 21 -19 22 -19 16 1 -28 98 -31 105 -39 93 -10 -16 -5 93 6
110 4 7 2 12 -3 12 -6 0 -11 7 -11 15 0 8 -7 15 -15 15 -9 0 -12 6 -8 16 5 14
2 16 -20 10 -16 -4 -27 -2 -27 4 0 16 66 12 80 -5 7 -8 10 -22 6 -31 -5 -12
-1 -14 14 -9 16 5 36 -9 93 -65 40 -40 64 -70 55 -66 -20 6 -23 -2 -8 -24 8
-13 11 -13 19 -1 19 30 36 4 39 -60 6 -130 20 -285 27 -302 7 -17 3 -17 -46
-11 -59 8 -114 27 -124 45 -11 17 3 23 20 9 8 -7 15 -9 15 -4 -1 5 -28 36 -60
69 -41 41 -64 73 -71 100 -6 22 -17 47 -24 55 -7 8 -20 31 -27 50 -8 19 -23
42 -33 50 -17 14 -17 13 -11 -10 6 -19 5 -21 -3 -10 -6 8 -11 25 -11 37 0 12
-4 25 -10 28 -5 3 -10 18 -10 32 0 18 -4 24 -14 20 -10 -4 -17 4 -21 24 -6 29
-25 41 -25 17 0 -7 -6 -4 -12 7 -6 11 -15 22 -19 25 -4 3 -7 12 -7 20 1 8 0
26 -1 40 -2 24 -2 24 -16 6 -14 -19 -15 -18 -15 11 0 18 5 35 10 38 8 5 7 12
-2 23 -11 13 -10 15 5 9 9 -3 17 -2 17 2 0 5 -7 11 -15 15 -8 3 -15 12 -15 21
0 13 -4 14 -22 4 -19 -10 -17 -5 9 24 18 21 40 52 50 70 14 25 18 28 21 14 2
-10 -3 -26 -12 -36z m1204 -3 c0 -6 -7 -5 -15 2 -8 7 -15 17 -15 22 0 6 7 5
15 -2 8 -7 15 -17 15 -22z m241 -47 c-14 -25 -14 -41 -1 -41 6 0 20 19 31 43
17 34 19 36 14 12 -3 -16 -13 -40 -21 -52 -13 -20 -17 -21 -42 -11 -37 16 -36
15 -19 32 8 8 17 12 20 9 3 -3 9 8 13 23 4 16 9 24 11 17 3 -7 0 -21 -6 -32z
m-806 -21 c23 -24 26 -32 15 -44 -11 -14 -15 -13 -37 4 -14 11 -32 20 -39 20
-18 0 -18 9 3 32 21 24 24 23 58 -12z m-885 5 c7 -9 8 -15 2 -15 -5 0 -12 7
-16 15 -3 8 -4 15 -2 15 2 0 9 -7 16 -15z m1480 -24 c-5 -11 -14 -22 -19 -25
-4 -3 -6 -18 -3 -32 3 -19 1 -25 -7 -20 -10 7 -15 -13 -15 -66 0 -9 -3 -15 -7
-13 -4 3 -10 -7 -13 -21 -4 -15 -10 -24 -13 -21 -3 3 0 29 7 57 7 28 10 53 8
55 -11 11 -78 -124 -78 -156 0 -41 -15 -59 -47 -59 -13 0 -27 -8 -31 -17 -4
-10 -25 -42 -47 -72 -43 -59 -122 -182 -156 -245 -14 -26 -16 -37 -7 -34 40
15 58 18 58 10 0 -26 -92 -59 -135 -48 -22 6 -26 11 -20 29 3 12 10 90 15 174
l8 152 43 38 c23 21 61 55 83 76 22 20 43 37 47 37 4 0 9 10 12 23 3 18 5 16
13 -13 l8 -35 6 35 c4 25 11 35 25 37 15 2 16 1 5 -5 -9 -4 -15 -22 -16 -42
-1 -29 -26 -125 -61 -235 -6 -17 -4 -18 9 -7 27 22 79 141 72 167 -5 19 -1 24
18 27 15 2 23 10 23 23 0 21 20 39 45 40 8 0 33 27 55 61 34 52 112 144 122
144 2 0 -1 -9 -7 -19z m-470 -6 c0 -9 -9 -15 -21 -15 -13 0 -46 -26 -85 -67
l-65 -68 -20 25 c-85 102 -108 122 -133 116 -14 -3 -28 -2 -31 4 -4 6 11 10
37 10 40 0 47 -4 98 -60 l55 -60 60 64 c59 62 105 85 105 51z m60 -9 c0 -2 -7
-9 -15 -16 -13 -11 -14 -10 -9 4 5 14 24 23 24 12z m330 -16 c0 -11 -4 -20 -8
-20 -4 0 -8 9 -9 20 -1 11 2 20 8 20 5 0 9 -9 9 -20z m-1886 -37 c15 -21 16
-27 5 -34 -12 -8 -11 -11 4 -20 23 -14 21 -32 -6 -55 -36 -30 -67 -45 -67 -34
0 5 5 10 10 10 6 0 10 7 10 15 0 23 -23 18 -44 -10 -10 -14 -26 -25 -35 -25
-11 0 -10 4 7 16 27 19 28 34 3 34 -11 0 -23 5 -26 10 -3 6 -13 10 -22 10 -13
0 -13 -3 -3 -15 18 -21 -3 -44 -34 -38 -22 4 -25 10 -23 43 1 37 2 38 34 33
28 -5 33 -3 33 15 0 18 18 32 41 32 5 0 15 -11 21 -25 6 -14 20 -25 31 -25 17
0 19 6 15 48 -3 55 12 61 46 15z m66 -74 c0 -18 -18 -9 -23 12 -4 16 -3 18 9
8 8 -6 14 -15 14 -20z m2493 -26 c-3 -29 -9 -53 -14 -53 -5 0 -9 5 -9 10 0 6
-4 10 -10 10 -5 0 -7 -7 -4 -15 4 -8 1 -15 -5 -15 -6 0 -11 17 -11 39 0 31 6
43 27 59 16 11 29 20 29 19 1 -1 -1 -26 -3 -54z m405 27 c2 -5 8 -8 13 -4 26
16 0 -17 -47 -60 -37 -34 -54 -44 -54 -33 0 10 6 17 13 17 20 0 38 57 22 70
-9 8 -15 8 -20 0 -8 -13 -45 -13 -45 0 0 6 9 10 19 10 11 0 22 4 26 9 7 13 69
5 73 -9z m-1718 -28 c0 -5 -12 -14 -27 -21 -28 -13 -28 -13 -9 8 20 22 36 27
36 13z m1790 -2 c0 -5 -7 -10 -16 -10 -8 0 -12 5 -9 10 3 6 10 10 16 10 5 0 9
-4 9 -10z m-2945 -20 c-10 -11 -24 -20 -31 -20 -7 0 -14 -3 -16 -7 -5 -12 -66
-53 -78 -53 -19 0 -10 15 21 32 18 11 27 22 23 29 -4 8 -3 9 4 5 6 -4 22 0 35
9 13 8 27 12 30 8 4 -3 7 -1 7 5 0 7 5 12 12 12 6 0 3 -9 -7 -20z m1076 -103
c-10 -10 -57 33 -89 80 -37 54 -24 50 38 -12 33 -33 56 -63 51 -68z m-2026 63
c19 -29 41 -47 92 -70 73 -34 133 -71 133 -82 0 -9 -23 -1 -123 46 -43 20 -82
36 -85 36 -15 1 -62 75 -62 97 0 31 14 22 45 -27z m2717 10 c-5 -13 -11 -19
-14 -14 -3 5 -1 20 4 34 13 31 22 12 10 -20z m1109 0 c-35 -34 -36 -36 -19
-46 7 -4 8 -3 4 4 -5 8 0 12 13 12 11 0 24 -6 28 -13 10 -18 51 -28 55 -15 3
7 12 7 28 -2 l23 -12 -21 -17 c-25 -19 -23 -55 4 -58 10 -2 13 0 7 3 -7 3 -13
10 -13 15 0 14 22 11 40 -6 14 -13 19 -13 28 -2 7 7 14 24 16 38 3 13 5 26 6
29 0 3 5 -3 11 -12 5 -10 18 -18 27 -18 16 -1 16 -1 0 -11 -10 -5 -18 -17 -18
-24 0 -8 -8 -15 -18 -15 -10 0 -27 -7 -39 -15 -19 -14 -97 -29 -197 -40 -21
-3 -41 -7 -44 -9 -8 -9 -42 14 -42 28 0 7 -11 18 -25 24 -25 12 -33 28 -16 34
6 2 40 33 78 69 59 57 98 88 112 89 2 0 -10 -14 -28 -30z m-205 -5 c15 -14 34
-23 41 -20 8 2 11 1 8 -4 -3 -6 2 -14 11 -19 15 -8 11 -16 -28 -54 -41 -41
-46 -44 -56 -27 -11 16 -15 16 -68 -12 -32 -16 -59 -27 -61 -26 -1 2 6 21 17
42 11 22 20 45 20 53 0 12 75 92 85 92 2 0 16 -11 31 -25z m264 15 c0 -5 -4
-10 -10 -10 -5 0 -10 5 -10 10 0 6 5 10 10 10 6 0 10 -4 10 -10z m-1696 -16
c17 -6 22 -34 7 -34 -15 0 -22 -33 -9 -42 10 -6 10 -10 -2 -18 -13 -8 -12 -11
4 -23 17 -12 17 -18 6 -51 -6 -21 -9 -40 -6 -43 3 -4 7 0 7 8 1 8 5 -8 9 -36
4 -35 3 -54 -6 -62 -18 -19 -32 -16 -39 7 -3 11 -10 20 -15 20 -5 0 -18 14
-30 31 l-22 30 21 51 c11 27 18 60 15 72 -3 14 2 28 15 40 12 11 21 27 21 38
0 20 1 21 24 12z m1221 -13 c3 -5 1 -12 -5 -16 -5 -3 -10 1 -10 9 0 18 6 21
15 7z m-858 -58 c-3 -10 -5 -2 -5 17 0 19 2 27 5 18 2 -10 2 -26 0 -35z
m-2010 20 c8 -10 12 -12 8 -5 -4 7 0 12 9 12 25 0 46 -12 46 -26 0 -8 6 -14
13 -14 9 0 9 -2 0 -8 -8 -5 -9 -12 -2 -22 7 -12 11 -12 17 -2 6 9 15 10 33 3
24 -10 24 -10 2 -16 -11 -4 -23 -15 -26 -26 -3 -12 -14 -19 -29 -19 -13 0 -43
-9 -66 -20 -50 -25 -54 -25 -74 -1 -20 24 -32 59 -31 91 1 15 0 18 -3 8 -6
-20 -19 -23 -29 -8 -9 15 -27 1 -21 -16 3 -8 0 -14 -6 -14 -7 0 -2 -9 10 -20
26 -24 28 -40 7 -40 -8 0 -15 9 -15 21 0 11 -4 18 -9 15 -5 -3 -11 3 -14 14
-3 11 0 20 6 21 9 0 8 2 0 6 -19 7 6 41 26 36 9 -2 41 7 71 21 66 31 59 30 77
9z m241 -13 c-7 -11 -20 -20 -30 -20 -19 0 -34 18 -23 28 3 3 10 0 14 -7 7
-10 11 -10 22 3 20 22 31 20 17 -4z m-102 -17 c-7 -7 -26 7 -26 19 0 6 6 6 15
-2 9 -7 13 -15 11 -17z m2747 5 c2 -13 8 -32 12 -43 6 -17 4 -17 -14 4 -21 23
-29 61 -12 61 5 0 11 -10 14 -22z m907 14 c0 -12 -86 -58 -164 -87 -123 -46
-62 8 67 60 92 37 97 38 97 27z m-3091 -59 c17 -21 31 -41 31 -44 0 -15 67
-108 73 -102 4 3 10 -7 13 -23 3 -16 32 -65 65 -109 32 -44 59 -83 59 -87 0
-16 -36 -29 -90 -32 -31 -1 -35 2 -41 32 -6 31 -36 99 -49 112 -5 5 -23 38
-87 162 -14 27 -26 54 -27 60 -1 7 -5 19 -9 25 -8 12 10 42 25 43 3 0 20 -17
37 -37z m1350 -64 c-13 -26 -20 -21 -12 9 3 12 9 19 14 16 5 -3 4 -14 -2 -25z
m967 15 c-5 -14 -4 -15 9 -4 25 21 31 1 7 -22 -12 -13 -22 -17 -22 -10 0 7 -6
12 -14 12 -9 0 -12 7 -9 20 3 11 12 20 20 20 10 0 13 -6 9 -16z m-3196 -40 c0
-2 -7 -4 -15 -4 -8 0 -15 4 -15 10 0 5 7 7 15 4 8 -4 15 -8 15 -10z m4130 -24
c0 -43 -12 -50 -45 -26 -18 13 -18 15 -2 30 9 10 17 22 17 27 0 5 7 9 15 9 11
0 15 -11 15 -40z m-4230 20 c0 -16 -62 -43 -105 -46 -22 -1 -76 -11 -120 -22
-44 -11 -82 -19 -84 -17 -5 5 23 16 129 48 47 15 99 31 115 36 40 13 65 13 65
1z m3912 -5 c91 -25 213 -66 222 -75 9 -9 -100 13 -144 30 -14 5 -53 16 -87
26 -35 9 -63 21 -63 25 0 12 11 11 72 -6z m-2068 -68 c19 -28 22 -37 11 -37
-10 0 -15 -11 -15 -35 0 -19 -4 -35 -10 -35 -5 0 -10 17 -11 38 0 20 -2 54 -4
76 -5 44 -5 44 29 -7z m-295 -31 c25 -39 27 -54 6 -32 -8 8 -15 18 -15 22 0 4
-7 16 -17 26 -9 10 -11 18 -5 18 6 0 20 -15 31 -34z m672 -25 c-29 -41 -35
-39 -16 5 8 20 15 39 15 42 0 3 5 1 11 -5 9 -9 6 -19 -10 -42z m1526 -23 c-3
-7 -5 -2 -5 12 0 14 2 19 5 13 2 -7 2 -19 0 -25z m-1821 6 c-3 -9 -6 -29 -6
-45 0 -48 -17 -33 -18 16 -1 35 2 45 14 45 11 0 14 -6 10 -16z m-326 -39 c0
-5 -5 -3 -10 5 -5 8 -10 20 -10 25 0 6 5 3 10 -5 5 -8 10 -19 10 -25z m22 -17
c-7 -7 -12 -8 -12 -2 0 14 12 26 19 19 2 -3 -1 -11 -7 -17z"/>
<path d="M2590 4065 c-7 -8 -8 -15 -2 -15 5 0 15 7 22 15 7 8 8 15 2 15 -5 0
-15 -7 -22 -15z"/>
<path d="M1927 3503 c-4 -3 -7 -11 -7 -17 0 -6 5 -5 12 2 6 6 9 14 7 17 -3 3
-9 2 -12 -2z"/>
<path d="M2534 3075 c-4 -8 -10 -12 -15 -9 -5 3 -9 -2 -9 -10 0 -8 5 -18 10
-21 6 -3 10 -1 10 4 0 6 9 11 20 11 22 0 23 1 14 24 -8 20 -23 21 -30 1z"/>
<path d="M2600 2999 c0 -5 5 -7 10 -4 6 3 10 8 10 11 0 2 -4 4 -10 4 -5 0 -10
-5 -10 -11z"/>
<path d="M2276 2853 c-6 -14 -5 -15 5 -6 7 7 10 15 7 18 -3 3 -9 -2 -12 -12z"/>
<path d="M2230 2840 c0 -5 5 -10 11 -10 5 0 7 5 4 10 -3 6 -8 10 -11 10 -2 0
-4 -4 -4 -10z"/>
<path d="M2100 2740 c0 -5 5 -10 10 -10 6 0 10 5 10 10 0 6 -4 10 -10 10 -5 0
-10 -4 -10 -10z"/>
<path d="M2280 2314 c0 -8 5 -12 10 -9 6 4 8 11 5 16 -9 14 -15 11 -15 -7z"/>
<path d="M435 2910 c-3 -5 -1 -10 4 -10 6 0 11 5 11 10 0 6 -2 10 -4 10 -3 0
-8 -4 -11 -10z"/>
<path d="M475 2820 c3 -5 8 -10 11 -10 2 0 4 5 4 10 0 6 -5 10 -11 10 -5 0 -7
-4 -4 -10z"/>
<path d="M4005 2550 c-10 -11 -15 -20 -11 -20 11 0 39 30 34 36 -3 2 -13 -5
-23 -16z"/>
<path d="M3915 2260 c3 -5 8 -10 11 -10 2 0 4 5 4 10 0 6 -5 10 -11 10 -5 0
-7 -4 -4 -10z"/>
<path d="M1445 2913 c14 -15 25 -36 25 -45 0 -22 26 -24 33 -3 4 9 -8 26 -31
45 -46 37 -61 39 -27 3z"/>
<path d="M1421 2874 c13 -14 25 -20 27 -15 4 13 -22 41 -39 41 -7 0 -2 -11 12
-26z"/>
<path d="M1519 2854 c-12 -14 -11 -16 5 -13 11 2 21 10 24 17 5 17 -13 15 -29
-4z"/>
<path d="M2640 2929 c-17 -30 -6 -34 14 -4 9 14 12 25 7 25 -6 0 -15 -9 -21
-21z"/>
<path d="M880 2324 c-13 -32 -13 -34 3 -29 6 3 13 16 13 30 2 32 -4 32 -16 -1z"/>
<path d="M1060 2292 c0 -12 19 -26 26 -19 2 2 -2 10 -11 17 -9 8 -15 8 -15 2z"/>
<path d="M1480 1438 c-15 -6 -20 -12 -12 -15 6 -3 10 -8 7 -13 -3 -4 4 -10 15
-13 11 -3 18 -1 14 4 -3 5 2 9 10 9 18 0 19 2 10 24 -7 18 -10 19 -44 4z"/>
<path d="M1620 1290 c0 -5 5 -10 11 -10 5 0 7 5 4 10 -3 6 -8 10 -11 10 -2 0
-4 -4 -4 -10z"/>
<path d="M2996 1300 c-10 -10 -15 -23 -11 -29 10 -17 28 -13 21 4 -3 8 -1 15
3 15 5 0 11 7 15 15 7 20 -5 18 -28 -5z"/>
<path d="M3036 1283 c-6 -14 -5 -15 5 -6 7 7 10 15 7 18 -3 3 -9 -2 -12 -12z"/>
<path d="M1736 861 c-4 -7 -5 -15 -2 -18 9 -9 19 4 14 18 -4 11 -6 11 -12 0z"/>
<path d="M1690 726 c0 -15 80 -109 87 -103 4 5 -76 117 -83 117 -2 0 -4 -6 -4
-14z"/>
<path d="M1836 468 c10 -21 24 -38 33 -38 11 0 8 7 -10 28 -13 15 -28 32 -32
37 -5 6 -1 -7 9 -27z"/>
<path d="M2060 370 c0 -6 -11 -8 -25 -4 -21 5 -25 3 -25 -16 0 -19 4 -21 27
-15 34 8 61 45 33 45 -5 0 -10 -5 -10 -10z"/>
<path d="M2094 329 c-11 -15 -29 -25 -44 -25 -21 0 -24 -4 -21 -24 1 -14 10
-34 18 -45 15 -20 15 -20 10 3 -6 26 1 28 19 5 7 -10 16 -15 20 -10 4 4 2 13
-4 19 -18 18 -14 44 9 60 12 8 20 20 17 28 -3 9 -10 6 -24 -11z"/>
<path d="M1980 272 c0 -21 32 -88 37 -75 2 6 -5 29 -16 50 -11 21 -20 32 -21
25z"/>
<path d="M2285 810 c3 -5 10 -10 16 -10 5 0 9 5 9 10 0 6 -7 10 -16 10 -8 0
-12 -4 -9 -10z"/>
<path d="M2560 378 c0 -11 -6 -14 -19 -11 -12 3 -20 -2 -23 -15 -4 -15 -2 -19
8 -15 8 3 14 9 14 15 0 5 5 6 10 3 11 -7 26 22 16 32 -3 4 -6 -1 -6 -9z"/>
<path d="M2430 345 c0 -19 5 -35 10 -35 6 0 10 16 10 35 0 19 -4 35 -10 35 -5
0 -10 -16 -10 -35z"/>
<path d="M2493 292 c1 -14 5 -18 11 -12 7 7 6 14 -1 21 -9 9 -12 7 -10 -9z"/>
<path d="M2466 245 c-3 -8 -1 -15 4 -15 6 0 10 7 10 15 0 8 -2 15 -4 15 -2 0
-6 -7 -10 -15z"/>
<path d="M3962 499 c2 -6 8 -10 13 -10 5 0 11 4 13 10 2 6 -4 11 -13 11 -9 0
-15 -5 -13 -11z"/>
<path d="M3785 451 c-6 -11 9 -23 19 -14 9 9 7 23 -3 23 -6 0 -12 -4 -16 -9z"/>
<path d="M2262 400 c0 -14 2 -19 5 -12 2 6 2 18 0 25 -3 6 -5 1 -5 -13z"/>
<path d="M2236 357 c3 -10 9 -15 12 -12 3 3 0 11 -7 18 -10 9 -11 8 -5 -6z"/>
<path d="M607 447 c-3 -8 -1 -20 4 -28 5 -9 9 -9 9 -2 0 6 3 18 6 27 3 9 2 16
-4 16 -5 0 -12 -6 -15 -13z"/>
<path d="M1946 4541 c-4 -7 -5 -15 -2 -18 9 -9 19 4 14 18 -4 11 -6 11 -12 0z"/>
</g>
</svg>
